<?xml version="1.0" encoding="UTF-8" standalone="no"?>
<svg
   xmlns:dc="http://purl.org/dc/elements/1.1/"
   xmlns:cc="http://creativecommons.org/ns#"
   xmlns:rdf="http://www.w3.org/1999/02/22-rdf-syntax-ns#"
   xmlns:svg="http://www.w3.org/2000/svg"
   xmlns="http://www.w3.org/2000/svg"
   xmlns:sodipodi="http://sodipodi.sourceforge.net/DTD/sodipodi-0.dtd"
   xmlns:inkscape="http://www.inkscape.org/namespaces/inkscape"
   sodipodi:docname="controller.svg"
   inkscape:version="1.0 (4035a4fb49, 2020-05-01)"
   id="svg8"
   version="1.1"
   viewBox="0 0 208 210"
   height="210mm"
   width="208mm">
  <defs
     id="defs2" />
  <sodipodi:namedview
     inkscape:window-maximized="0"
     inkscape:window-y="0"
     inkscape:window-x="76"
     inkscape:window-height="728"
     inkscape:window-width="1274"
     showgrid="false"
     inkscape:document-rotation="0"
     inkscape:current-layer="layer1-9"
     inkscape:document-units="mm"
     inkscape:cy="560"
     inkscape:cx="400"
     inkscape:zoom="0.35"
     inkscape:pageshadow="2"
     inkscape:pageopacity="0.0"
     borderopacity="1.0"
     bordercolor="#666666"
     pagecolor="#ffffff"
     id="base" />
  <metadata
     id="metadata5">
    <rdf:RDF>
      <cc:Work
         rdf:about="">
        <dc:format>image/svg+xml</dc:format>
        <dc:type
           rdf:resource="http://purl.org/dc/dcmitype/StillImage" />
        <dc:title></dc:title>
      </cc:Work>
    </rdf:RDF>
  </metadata>
  <g
     id="layer1"
     inkscape:groupmode="layer"
     inkscape:label="Layer 1">
    <ellipse
       ry="44.601189"
       rx="50.270832"
       cy="107.34524"
       cx="-94.872025"
       id="path833"
       style="opacity:0.997;fill:#00ff00;stroke-width:0.264583" />
    <g
       transform="translate(-0.37794714,3.4017871)"
       id="layer1-9"
       inkscape:label="Layer 1">
      <ellipse
         transform="matrix(1,0,0.00796788,0.99996826,0,0)"
         ry="94.875023"
         rx="96.383926"
         cy="103.19077"
         cx="106.14503"
         id="path115"
         style="fill:#008000;stroke-width:0.222627" />
      <path
         id="path137"
         d="m 56.726877,141.87206 c -1.603162,-0.67772 -3.781012,-2.07735 -4.839662,-3.11028 -4.576574,-4.46541 -5.217911,-7.21388 -4.107567,-17.60325 1.744823,-16.32629 5.938003,-31.742056 11.960331,-43.970921 2.678667,-5.439247 3.700987,-6.968024 6.709458,-10.033312 3.08753,-3.14583 3.966754,-3.745503 6.758114,-4.609376 5.534525,-1.712824 12.691654,-2.634905 16.615827,-2.140681 5.851672,0.73698 8.360466,2.531593 10.272312,7.348102 l 0.83452,2.102386 h 6.26717 6.26717 l 1.11798,-2.705456 c 1.28877,-3.118814 3.65299,-5.424871 6.3246,-6.169022 2.35978,-0.657295 9.80863,-0.668625 13.78712,-0.02097 1.6757,0.272788 4.56086,0.964594 6.41146,1.537345 2.97573,0.92097 3.77739,1.461825 6.9341,4.67816 3.08004,3.138205 4.00608,4.537614 6.75463,10.207542 6.05855,12.498095 10.09479,27.324593 11.87205,43.610153 0.44168,4.04727 0.65021,8.27678 0.46341,9.3989 -0.54474,3.27207 -2.12831,6.09581 -4.73873,8.4499 -6.82102,6.15118 -16.2942,5.50248 -23.37606,-1.60075 -1.54568,-1.55035 -5.59424,-6.55255 -8.99681,-11.11602 -5.49276,-7.36676 -6.47512,-8.43884 -8.76031,-9.56024 -7.02443,-3.44711 -21.02664,-3.44504 -28.05533,0.003 -2.294887,1.12618 -3.270593,2.18981 -8.766247,9.55629 -10.100201,13.53868 -13.730633,16.42908 -21.09576,16.79567 -3.09807,0.1542 -4.172414,-0.0161 -6.613776,-1.04812 z m 9.882188,-6.75015 c 3.110606,-1.51036 5.28089,-3.86226 12.394875,-13.4321 6.959716,-9.36233 8.544544,-10.76974 14.327806,-12.72387 8.020074,-2.70991 19.785594,-2.70991 27.805664,0 5.78327,1.95413 7.3681,3.36154 14.32782,12.72387 7.18012,9.65882 9.27742,11.91841 12.52675,13.49613 4.26308,2.06994 9.45628,0.27801 11.63704,-4.01541 0.67376,-1.32647 0.79577,-2.42514 0.57293,-5.15896 -0.47555,-5.83377 -2.57502,-18.86098 -3.8547,-23.91828 -3.85823,-15.247768 -11.09577,-29.922422 -16.0021,-32.445473 -3.40163,-1.749265 -15.87026,-3.020777 -17.77302,-1.812436 -0.38011,0.241393 -1.4898,1.963178 -2.46594,3.826187 -2.53096,4.83039 -3.25223,5.117128 -12.87161,5.117128 -9.626728,0 -10.339328,-0.284157 -12.881803,-5.136757 C 93.371014,69.768135 92.1815,68.018207 91.7094,67.753213 89.707822,66.62969 81.174711,67.383463 75.561467,69.179644 72.172281,70.264148 69.29701,73.729668 65.783394,80.965005 59.77133,93.345215 56.084675,107.3172 54.460148,123.87877 c -0.608706,6.20561 -0.184038,7.81713 2.661178,10.09869 2.982303,2.3915 6.135978,2.77191 9.487739,1.14445 z m 62.079295,-28.71208 c -1.89131,-1.09758 -2.69027,-2.59326 -2.70158,-5.05737 -0.01,-1.987572 0.23066,-2.630146 1.43066,-3.833771 2.0457,-2.05188 5.26338,-2.052958 7.55131,-0.0028 1.41687,1.269785 1.61064,1.744569 1.61064,3.946191 0,2.04355 -0.23818,2.74163 -1.29822,3.80486 -1.47719,1.48166 -4.96653,2.0864 -6.59281,1.14261 z m 4.38643,-4.02997 c 0.73936,-1.18436 -0.16223,-2.551522 -1.81376,-2.750382 -1.6402,-0.19748 -2.62882,1.382342 -1.81708,2.903702 0.65987,1.2367 2.82006,1.14548 3.63084,-0.15332 z m -55.431617,2.65069 c -1.150595,-0.31956 -1.24266,-0.5807 -1.377877,-3.90813 l -0.14491,-3.565674 h -3.332081 c -1.934035,0 -3.580405,-0.249067 -3.923915,-0.593611 -0.689717,-0.691788 -0.809074,-8.190033 -0.147055,-9.238327 0.269837,-0.427284 1.727179,-0.773499 3.917666,-0.9307 l 3.488009,-0.25032 0.143593,-3.521409 0.143592,-3.521412 4.641099,-0.143282 c 2.552601,-0.0788 4.815777,0.0325 5.029289,0.247339 0.213512,0.214844 0.491485,1.948862 0.617727,3.853375 l 0.229528,3.462753 3.35837,0.148778 c 1.918783,0.08501 3.519543,0.403076 3.734353,0.74202 0.622173,0.98171 0.457437,8.491006 -0.200754,9.151185 -0.33252,0.333509 -1.926174,0.593611 -3.637271,0.593611 -3.016351,0 -3.048402,0.01485 -3.353695,1.545876 -0.169531,0.850226 -0.308246,2.413968 -0.308246,3.474978 0,1.61561 -0.205587,2.00753 -1.265084,2.41157 -1.41767,0.54063 -5.730364,0.56407 -7.612338,0.0414 z m 5.425091,-6.269633 c 0,-4.256553 0.391816,-4.66692 4.456066,-4.66692 h 3.43498 v -1.978716 -1.978715 h -3.43498 c -4.06425,0 -4.456066,-0.410361 -4.456066,-4.66693 v -2.753255 h -1.726166 -1.726165 v 2.441191 c 0,1.342655 -0.216439,3.012197 -0.480982,3.710092 -0.453304,1.195875 -0.680365,1.268902 -3.945519,1.268902 h -3.464546 v 1.978715 1.978716 h 3.464546 c 3.265154,0 3.492215,0.07297 3.945519,1.268899 0.264543,0.697896 0.480982,2.367424 0.480982,3.710091 v 2.441183 h 1.726165 1.726166 z m 34.720586,-2.886066 c -1.37467,-1.378829 -1.67685,-2.056322 -1.67685,-3.75957 0,-2.832789 2.47071,-5.441468 5.15367,-5.441468 3.51213,0 5.69653,2.107982 5.69653,5.497262 0,3.221692 -2.1271,5.358141 -5.35112,5.374674 -1.78988,0.0094 -2.42325,-0.267715 -3.82223,-1.670898 z m 5.62769,-3.618927 c 0.13151,-1.364638 -0.0321,-1.637415 -1.15141,-1.919181 -1.76498,-0.444316 -2.94419,0.738469 -2.50122,2.508764 0.28092,1.122638 0.55287,1.286791 1.9134,1.154897 1.38665,-0.134422 1.60522,-0.353649 1.73923,-1.74448 z m 13.78931,4.328226 c -3.01101,-2.375607 -2.87406,-7.023929 0.26349,-8.942787 3.25512,-1.990761 7.22596,-0.580129 8.27762,2.940606 0.70622,2.364275 0.0385,4.470431 -1.90298,6.002181 -1.64597,1.298624 -4.99216,1.298624 -6.63813,0 z m 5.05736,-3.246815 c 0.47873,-0.578586 0.49543,-1.044297 0.071,-1.978722 -0.90111,-1.983711 -4.02861,-1.396296 -4.02861,0.756668 0,1.852726 2.73663,2.697741 3.95766,1.222054 z M 128.3914,87.522371 c -5.59022,-3.770027 -1.09644,-12.188177 5.11637,-9.584462 4.26915,1.789147 4.38215,7.90724 0.18297,9.905896 -2.27572,1.083159 -3.3096,1.02045 -5.29934,-0.321434 z m 4.0283,-2.844679 c 1.06633,-0.572408 1.26818,-2.437628 0.36213,-3.346413 -0.87255,-0.875182 -2.09711,-0.723651 -3.09565,0.383068 -0.82522,0.914591 -0.82935,1.056111 -0.065,2.226055 0.89854,1.375496 1.37557,1.501168 2.7986,0.73729 z"
         style="fill:#ffffff;stroke-width:0.493934" />
      <ellipse
         style="fill:#008000;stroke-width:0.222627"
         id="path115-2"
         cx="322.64859"
         cy="255.14203"
         rx="96.383926"
         ry="94.875023"
         transform="matrix(1,0,0.00796788,0.99996826,0,0)" />
    </g>
  </g>
</svg>
