<?xml version="1.0" encoding="UTF-8" standalone="no"?>
<svg
   xmlns:dc="http://purl.org/dc/elements/1.1/"
   xmlns:cc="http://creativecommons.org/ns#"
   xmlns:rdf="http://www.w3.org/1999/02/22-rdf-syntax-ns#"
   xmlns:svg="http://www.w3.org/2000/svg"
   xmlns="http://www.w3.org/2000/svg"
   xmlns:sodipodi="http://sodipodi.sourceforge.net/DTD/sodipodi-0.dtd"
   xmlns:inkscape="http://www.inkscape.org/namespaces/inkscape"
   width="210mm"
   height="297mm"
   viewBox="0 0 210 297"
   version="1.1"
   id="svg926"
   inkscape:version="1.0 (4035a4fb49, 2020-05-01)"
   sodipodi:docname="Tebak gambar.svg">
  <defs
     id="defs920" />
  <sodipodi:namedview
     inkscape:window-maximized="0"
     inkscape:window-y="0"
     inkscape:window-x="76"
     inkscape:window-height="728"
     inkscape:window-width="1274"
     showgrid="false"
     inkscape:document-rotation="0"
     inkscape:current-layer="layer1"
     inkscape:document-units="mm"
     inkscape:cy="560"
     inkscape:cx="400"
     inkscape:zoom="0.35"
     inkscape:pageshadow="2"
     inkscape:pageopacity="0.0"
     borderopacity="1.0"
     bordercolor="#666666"
     pagecolor="#ffffff"
     id="base" />
  <metadata
     id="metadata923">
    <rdf:RDF>
      <cc:Work
         rdf:about="">
        <dc:format>image/svg+xml</dc:format>
        <dc:type
           rdf:resource="http://purl.org/dc/dcmitype/StillImage" />
        <dc:title></dc:title>
      </cc:Work>
    </rdf:RDF>
  </metadata>
  <g
     id="layer1"
     inkscape:groupmode="layer"
     inkscape:label="Layer 1">
    <path
       id="path1503"
       d="m 168.32551,283.53666 -1.77826,-0.17702 -0.24054,-3.79969 c -1.10694,-17.4854 -2.20315,-27.80081 -4.05622,-38.16964 -2.45333,-13.72756 -6.03066,-23.57248 -9.90873,-27.26909 -1.3984,-1.33299 -1.81828,-1.53308 -3.50142,-1.66864 l -1.91246,-0.15404 -0.99406,3.40588 c -1.76385,6.04343 -5.06672,16.03206 -7.3226,22.14527 l -2.19882,5.95861 h -3.69319 -3.69317 v 4.14512 4.14512 h -4.63348 -4.63347 l 0.2412,-4.14512 0.24119,-4.14512 H 108.45162 96.661778 v 4.31783 4.31784 h -4.445619 -4.44561 v -4.31784 -4.31783 h -4.208123 -4.208124 l -0.38915,-1.12263 c -0.214031,-0.61746 -1.69031,-4.77391 -3.280619,-9.23655 -1.59031,-4.46266 -3.770925,-11.06473 -4.845814,-14.67127 -1.074889,-3.60653 -2.146138,-6.67576 -2.38056,-6.8205 -1.352875,-0.83528 -4.392755,0.55423 -6.071347,2.7752 -6.572145,8.69565 -11.079792,30.99909 -12.869036,63.67489 -0.264604,4.83213 -0.223203,4.76363 -2.885313,4.77477 -1.108798,0.005 -1.137106,-0.0366 -1.719182,-2.49963 -3.247049,-13.7403 -5.458248,-26.77162 -6.608623,-38.94684 -0.549964,-5.82058 -0.564696,-18.95758 -0.02661,-23.76933 2.134635,-19.09051 9.78385,-31.25851 21.667396,-34.46745 2.452496,-0.66224 2.428553,-0.61586 1.867439,-3.61748 -0.192966,-1.03232 -0.674158,-4.36401 -1.069304,-7.40376 -6.523204,-50.1811 2.59316,-96.062623 26.595654,-133.852811 4.71653,-7.425868 11.207779,-15.768584 16.604237,-21.340146 3.76844,-3.890695 4.09323,-3.883297 8.02367,0.182768 8.55145,8.846535 17.67642,21.872421 24.37358,34.793364 10.46942,20.1987 17.31584,43.503995 19.68895,67.021115 1.91358,18.96341 1.26931,40.41311 -1.77664,59.14859 -0.86542,5.32326 -0.86681,5.27347 0.14646,5.27347 0.4584,0 1.75756,0.30881 2.88705,0.68623 7.60169,2.54019 13.69189,9.56864 17.06491,19.69394 2.48714,7.46602 3.50444,14.95665 3.49496,25.73428 -0.009,11.37003 -1.157,22.27703 -3.83497,36.46657 -1.14731,6.07919 -3.61485,17.31962 -3.81871,17.39549 -0.049,0.0181 -0.88913,-0.0466 -1.86716,-0.14392 z M 93.460946,246.57171 v -2.76341 h -1.244787 -1.244765 v 2.76341 2.76342 h 1.244765 1.244787 z M 125.82518,246.399 v -2.5907 h -1.24478 -1.24479 v 2.5907 2.59071 h 1.24479 1.24478 z m 10.94457,-14.33521 2.89768,-8.29024 h -31.81672 c -17.499137,0 -31.816612,0.0534 -31.816612,0.11849 0,0.11385 3.944727,11.43084 5.166148,14.82109 l 0.591131,1.64077 h 26.040293 26.0404 z m 5.77104,-17.74658 c 0,-0.0714 0.79561,-3.14138 1.76801,-6.82217 2.34401,-8.87265 3.33591,-13.36203 5.50456,-24.9136 l 0.17832,-0.94994 H 107.82463 65.657688 l 0.239228,1.46807 c 1.140759,7.0005 4.976002,23.75743 6.759588,29.53398 l 0.55994,1.81349 h 34.662116 c 19.06422,0 34.66223,-0.0584 34.66223,-0.12977 z m -26.76276,-36.39895 c -9.34029,-0.0512 -24.624365,-0.0512 -33.964608,0 -9.340283,0.0512 -1.698228,0.093 16.982252,0.093 18.680586,0 26.322646,-0.0419 16.982356,-0.093 z m 35.8126,-7.6726 c 0.459,-2.21121 1.3126,-13.20908 1.60286,-20.65171 0.97229,-24.92941 -1.93096,-46.08234 -9.83761,-71.676767 -0.17623,-0.570434 -2.17733,-0.604495 -35.51589,-0.604495 H 72.510981 l -1.112908,3.367899 c -7.073964,21.407393 -10.292033,47.874153 -8.872521,72.971373 0.383632,6.78271 1.351523,16.88991 1.664522,17.38181 0.103015,0.16187 19.769329,0.24806 43.702876,0.19151 l 43.51568,-0.10283 z M 104.6507,158.62909 c -1.95305,-0.67351 -3.88051,-2.28458 -5.05515,-4.22534 -0.848191,-1.40138 -0.977045,-1.98141 -0.972727,-4.37876 0.0045,-2.01395 0.183214,-3.09131 0.662203,-3.97242 3.113714,-5.7277 10.568294,-6.9099 15.200704,-2.41066 3.71515,3.60834 3.70453,9.16814 -0.0244,12.78991 -2.59982,2.52508 -6.39511,3.37511 -9.81057,2.19727 z m 5.34752,-0.86793 c 3.41528,-0.83525 6.01255,-4.17464 6.01697,-7.73617 0.0102,-8.13144 -10.84257,-11.09331 -15.25403,-4.16307 -0.936592,1.47133 -1.075139,2.0084 -1.066958,4.13598 0.01023,2.78738 0.531008,3.99266 2.542848,5.89038 1.25528,1.18407 3.65752,2.17963 5.38133,2.23017 0.4513,0.0132 1.52224,-0.14754 2.37984,-0.35729 z m -3.78983,-1.68247 c -1.62594,-0.47707 -2.9669,-1.40971 -3.87246,-2.69328 -0.71408,-1.01218 -0.87286,-1.66017 -0.87286,-3.56212 0,-2.07673 0.11653,-2.46657 1.09223,-3.65228 1.4029,-1.70496 3.10454,-2.5352 5.19742,-2.53587 4.02369,-0.001 6.69162,2.5642 6.69162,6.43475 0,2.38276 -1.28659,4.31859 -3.62118,5.44854 -1.89873,0.91896 -2.95516,1.04721 -4.61477,0.56026 z m 4.71575,-1.82912 c 0.66466,-0.43125 1.48828,-1.32504 1.83029,-1.98619 2.38779,-4.61597 -2.88949,-9.40804 -7.5556,-6.86093 -4.88272,2.66534 -2.95455,9.63123 2.66596,9.63123 1.33223,0 2.18953,-0.21973 3.05935,-0.78411 z m -5.61145,-14.89504 c -4.3502,-1.37052 -6.877638,-4.67309 -6.869184,-8.97593 0.0045,-2.37647 1.256775,-4.89547 3.302884,-6.64475 4.55002,-3.88996 11.65462,-2.52526 14.58804,2.80213 1.08164,1.96439 1.07286,5.99044 -0.0175,7.99125 -2.16576,3.97443 -6.9917,6.09142 -11.00429,4.8273 z m 5.85329,-1.4378 c 3.59628,-1.45907 5.62549,-5.39242 4.70484,-9.11977 -1.43819,-5.82266 -8.63001,-8.18763 -13.36668,-4.39552 -1.57338,1.25963 -2.988891,4.04659 -2.993686,5.89415 -0.008,3.13013 1.996246,6.2789 4.777976,7.50609 1.78848,0.78899 5.08067,0.84407 6.87755,0.11506 z m -6.14641,-1.68026 c -2.26805,-0.98326 -3.73433,-3.24559 -3.73433,-5.76167 0,-2.81662 2.11702,-5.43557 5.0042,-6.19066 3.94736,-1.03236 8.1549,2.04944 8.1549,5.97304 0,3.89604 -2.67194,6.48704 -6.65705,6.45537 -0.93542,-0.007 -2.18089,-0.22169 -2.76772,-0.47608 z m 5.52197,-1.24219 c 2.52822,-1.25272 3.53105,-4.43502 2.17732,-6.90927 -0.99529,-1.81907 -2.64781,-2.75803 -4.85407,-2.75803 -4.2392,0 -6.7968,4.07709 -4.7627,7.59224 1.47939,2.55657 4.67105,3.4468 7.43945,2.07506 z m -5.97895,-15.28281 c -1.75942,-0.54757 -4.34133,-2.94645 -5.281234,-4.90684 -1.418082,-2.95774 -0.963569,-6.72388 1.133784,-9.3946 1.17357,-1.4944 3.52949,-2.80778 5.89822,-3.28817 6.65054,-1.34874 12.62972,5.41089 10.44278,11.80582 -1.62299,4.74588 -7.13208,7.35901 -12.19355,5.78379 z m 6.99928,-1.51239 c 7.72178,-3.73731 4.96008,-15.02874 -3.67578,-15.02874 -2.52573,0 -4.58235,0.88724 -6.20379,2.67634 -2.319506,2.55933 -2.756112,5.98958 -1.14962,9.03225 2.01475,3.81595 6.94086,5.29888 11.02919,3.32015 z m -6.35388,-1.36389 c -1.62547,-0.68476 -2.43183,-1.42427 -3.2493,-2.97987 -1.4642,-2.78637 -0.47149,-6.387 2.24173,-8.1309 2.1101,-1.35626 5.21863,-1.35626 7.32874,0 4.21801,2.71109 3.77391,8.98928 -0.77788,10.9969 -1.76091,0.77669 -3.86724,0.81995 -5.54329,0.11385 z m 5.64904,-1.44568 c 3.11711,-2.24166 3.32108,-6.09151 0.44714,-8.44023 -3.98926,-3.26024 -10.14954,0.69804 -8.65029,5.55823 0.45951,1.48962 2.00442,3.04655 3.46975,3.49679 1.45637,0.44748 3.65299,0.16218 4.7334,-0.61479 z m -6.90441,-15.405137 c -3.46491,-1.579401 -5.194295,-4.003689 -5.432995,-7.61596 -0.204463,-3.094426 0.716075,-5.425367 2.922815,-7.401002 5.96233,-5.337882 15.60168,-1.223848 15.65263,6.680495 0.0425,6.590282 -7.0724,11.103374 -13.14245,8.336467 z m 6.2926,-0.625175 c 1.89296,-0.550838 4.34254,-2.720373 5.0727,-4.492761 1.59614,-3.874452 -0.0551,-8.484451 -3.68296,-10.282035 -4.18979,-2.07602 -9.13553,-0.533122 -11.20209,3.494681 -3.287387,6.407321 2.74125,13.337767 9.81235,11.280115 z m -5.26693,-1.981745 c -1.51175,-0.666784 -3.05806,-2.338984 -3.51779,-3.804189 -0.41098,-1.309779 -0.25293,-3.714613 0.31333,-4.767618 1.21068,-2.251379 3.42708,-3.553796 6.0252,-3.540557 5.54067,0.0282 8.67838,6.307069 5.11929,10.244109 -2.15833,2.387536 -5.1609,3.094034 -7.94003,1.868255 z M 110.71,96.009955 c 2.39524,-1.297952 3.29768,-5.159962 1.69341,-7.246935 -3.27292,-4.257682 -10.05121,-2.362495 -10.05121,2.810286 0,4.129557 4.50822,6.522708 8.3578,4.436649 z m 27.22608,-31.91893 C 130.6623,47.384363 120.55397,31.630301 109.75616,20.172026 l -1.92723,-2.045121 -3.11915,3.426827 C 94.060484,33.253584 84.589691,48.231197 77.697166,64.272836 l -1.595494,3.713334 h 31.765098 31.76518 z"
       style="fill:#008000;fill-opacity:1;stroke-width:0.350502" />
    <rect
       ry="27.519884"
       y="79.429359"
       x="82.565155"
       height="89.202393"
       width="47.624996"
       id="rect1505"
       style="opacity:0.997;fill:#e30000;fill-opacity:1;stroke-width:0.308956" />
    <rect
       ry="10.485777"
       y="91.448761"
       x="88.839546"
       height="65.012131"
       width="35.529766"
       id="rect1507"
       style="opacity:0.997;fill:#ffffff;fill-opacity:1;stroke-width:0.321944" />
  </g>
</svg>
